:SAMPLES-PER-SECOND 30
:FULLY-SPECIFIED
:DEGREES
530
root  2.43744 30.3479 10.2759 -80.5411 -3.27637 90.8059
Spine  8.7102 15.6583 -3.83467
Spine1  6.55066 -16.6794 0.954304
Neck  3.97569e-016 0 -2.38542e-015
Head  24.9786 3.4096 21.6267
R_Clavicle  0.571966 -2.76495 3.01418
R_UpperArm  15.5802 14.8323 -10.1126
R_Forearm  14.3179 -8.78956 7.35368
R_Hand  -0.201961 5.03451 -10.7144
L_Clavicle  -0.411344 15.2372 -2.79316
L_UpperArm  -22.6052 24.6885 39.4952
L_Forearm  -10.7585 10.7866 12.7001
L_Hand  -0.184482 2.11949 -2.59705
L_Thigh  -3.7409 -1.10298 22.214
L_Calf  0.501636 -0.119194 0.450683
L_Foot  2.3281 12.3461 -2.18301
L_Toe0  0.408272 0.0372297 -6.22224
R_Thigh  4.07773 6.39458 -35.2351
R_Calf  -3.75015 8.82332 28.7638
R_Foot  -2.4455 -0.428184 18.5746
R_Toe0  -0.919141 -0.033965 -7.77043
531
root  2.56557 29.9271 9.89777 -82.0262 -2.63667 92.1474
Spine  10.4648 19.2466 -2.89688
Spine1  7.71745 -19.7862 0.104966
Neck  3.97569e-016 0 -2.38542e-015
Head  23.6453 3.85218 19.9499
R_Clavicle  0.513622 -4.54417 2.7317
R_UpperArm  17.6076 16.3163 -9.04542
R_Forearm  16.1836 -14.246 12.1503
R_Hand  -0.480739 6.13203 -14.0628
L_Clavicle  -0.441725 15.7579 -1.77094
L_UpperArm  -20.9411 20.1337 35.6873
L_Forearm  -12.0371 7.37007 8.5776
L_Hand  -0.247081 0.57729 -4.52715
L_Thigh  0.782021 0.933782 24.2371
L_Calf  1.13728 0.0576951 -0.879699
L_Foot  3.23314 12.0259 1.01074
L_Toe0  0.505156 0.034446 -6.1361
R_Thigh  1.23559 8.01523 -37.0651
R_Calf  -0.618998 9.83137 32.5426
R_Foot  -2.3386 0.786708 22.2514
R_Toe0  -1.35663 -0.151451 -12.9673
532
root  2.53722 29.6109 9.44969 -82.3801 -1.6234 92.2079
Spine  11.7381 21.8388 -1.84934
Spine1  8.42324 -23.5612 -0.1821
Neck  3.97569e-016 0 -2.38542e-015
Head  21.2777 4.36793 18.4089
R_Clavicle  0.396375 -7.42267 1.95476
R_UpperArm  22.341 15.466 -4.59359
R_Forearm  19.8864 -18.2241 15.8523
R_Hand  -1.0253 7.1948 -18.9669
L_Clavicle  -0.454441 16.0592 -0.552555
L_UpperArm  -17.9861 14.1584 28.8821
L_Forearm  -12.8396 4.85376 5.61328
L_Hand  -0.31121 -0.0198346 -6.38785
L_Thigh  4.95876 0.937273 24.6826
L_Calf  7.71573 0.213688 -2.02836
L_Foot  2.44781 7.05167 2.70918
L_Toe0  0.505155 0.034446 -6.1361
R_Thigh  0.178022 8.16257 -37.4329
R_Calf  1.51347 9.98633 33.1836
R_Foot  -1.83775 2.13205 23.9195
R_Toe0  -1.47318 -0.183179 -14.2071
533
root  2.35136 29.4726 8.92039 -81.6271 -0.963211 90.7342
Spine  12.18 22.2344 -0.504448
Spine1  8.45742 -26.5714 0.37219
Neck  3.97569e-016 0 -2.38542e-015
Head  18.8111 4.23021 16.404
R_Clavicle  0.326254 -10.8359 1.21803
R_UpperArm  25.937 12.5039 2.10891
R_Forearm  27.7544 -20.7879 18.3996
R_Hand  -1.444 7.07034 -22.4132
L_Clavicle  -0.458004 16.189 -0.087423
L_UpperArm  -13.8058 8.34413 20.5085
L_Forearm  -11.7206 2.31607 2.66149
L_Hand  -0.350578 0.346356 -6.69038
L_Thigh  6.12196 -0.774214 22.4844
L_Calf  13.1152 0.17108 -1.68863
L_Foot  2.23418 4.3536 4.75151
L_Toe0  0.505152 0.034446 -6.1361
R_Thigh  0.235102 6.78204 -37.189
R_Calf  1.35328 9.45657 31.1571
R_Foot  -1.669 2.38212 23.696
R_Toe0  -1.1874 -0.139596 -11.6598
534
root  2.10688 29.5108 8.34644 -79.8591 -0.600474 87.6237
Spine  11.2286 18.8382 0.576597
Spine1  7.61194 -26.5601 1.93583
Neck  3.97569e-016 0 -2.38542e-015
Head  18.0797 3.062 13.4664
R_Clavicle  0.29416 -14.0263 0.445629
R_UpperArm  25.056 8.90191 9.29032
R_Forearm  37.5289 -23.6017 20.4034
R_Hand  -1.51537 6.16172 -23.162
L_Clavicle  -0.451765 15.9771 -0.427246
L_UpperArm  -9.76326 4.24711 11.2687
L_Forearm  -8.75925 -1.00368 -1.17638
L_Hand  -0.328818 0.867213 -5.75001
L_Thigh  4.35748 -3.98099 18.4461
L_Calf  12.9372 -0.149646 0.764167
L_Foot  3.31154 5.89446 7.19819
L_Toe0  0.505149 0.0344461 -6.1361
R_Thigh  2.29007 4.18157 -35.2378
R_Calf  -0.0112018 7.6299 24.505
R_Foot  -0.945519 3.15982 20.1868
R_Toe0  -0.851428 0.188402 -3.36136
535
root  1.84791 29.554 7.71313 -77.2226 -0.0266843 83.7437
Spine  9.05789 12.4799 0.912867
Spine1  6.1101 -23.0604 4.09904
Neck  3.97569e-016 0 -2.38542e-015
Head  19.0165 1.75174 9.59319
R_Clavicle  0.26623 -16.3998 -0.7553
R_UpperArm  22.9835 5.65754 16.2802
R_Forearm  41.5927 -27.6331 20.8451
R_Hand  -1.50795 5.48219 -23.1989
L_Clavicle  -0.405532 14.7517 -0.989538
L_UpperArm  -6.74682 2.02308 0.430681
L_Forearm  -5.26678 -4.54207 -5.28216
L_Hand  -0.294332 1.27108 -4.82551
L_Thigh  2.55513 -8.33296 15.0694
L_Calf  10.5187 -0.425731 3.02164
L_Foot  4.9365 8.60124 9.96495
L_Toe0  0.505146 0.0344461 -6.1361
R_Thigh  6.17298 0.539344 -30.302
R_Calf  -1.72179 3.82554 11.9223
R_Foot  1.23181 6.30339 10.3222
R_Toe0  -0.541704 0.618236 10.6095
536
root  1.55587 29.4928 6.9903 -74.4814 0.430427 80.6605
Spine  6.71784 6.63406 0.779099
Spine1  4.50316 -18.2993 6.46372
Neck  3.97569e-016 0 -2.38542e-015
Head  19.5076 1.27724 5.64891
R_Clavicle  0.264617 -18.0951 -1.97909
R_UpperArm  17.6448 2.41186 23.0853
R_Forearm  42.4134 -28.8887 20.4976
R_Hand  -1.62626 5.47186 -24.3117
L_Clavicle  -0.310336 12.4566 -1.24861
L_UpperArm  -3.81484 -0.32719 -12.3387
L_Forearm  -2.57932 -6.82211 -7.96009
L_Hand  -0.29589 1.55061 -4.64927
L_Thigh  2.91726 -12.4838 13.1804
L_Calf  9.44575 -0.362855 2.85145
L_Foot  5.89893 9.55424 12.1345
L_Toe0  0.505145 0.0344461 -6.1361
R_Thigh  9.56849 -3.32243 -24.1102
R_Calf  -2.38191 -0.577503 -1.80639
R_Foot  2.12503 6.24937 -4.3759
R_Toe0  3.87965 -1.30875 14.874
537
root  1.22574 29.4363 6.16098 -73.0497 -0.152556 78.7426
Spine  4.88562 3.19234 0.381712
Spine1  3.04506 -14.6462 8.95965
Neck  3.97569e-016 0 -2.38542e-015
Head  18.3788 1.48367 3.12267
R_Clavicle  0.308229 -19.4423 -2.27955
R_UpperArm  8.66066 -1.47389 29.2828
R_Forearm  45.6533 -24.7148 20.0297
R_Hand  -1.74619 5.74726 -25.3206
L_Clavicle  -0.239546 10.2897 -0.931205
L_UpperArm  0.368466 -4.77309 -25.0396
L_Forearm  -1.14014 -6.68697 -7.79982
L_Hand  -0.340949 1.51403 -5.38974
L_Thigh  4.58575 -14.9065 10.6073
L_Calf  9.51995 -0.234541 2.0488
L_Foot  5.55026 7.92276 12.8806
L_Toe0  0.505146 0.0344461 -6.1361
R_Thigh  10.903 -6.6609 -18.9606
R_Calf  -2.6507 -4.17864 -13.0954
R_Foot  1.94029 2.94338 -13.0821
R_Toe0  6.9652 -2.58488 -1.39266
538
root  0.893223 29.6458 5.13827 -73.6151 -1.91727 78.1611
Spine  3.34356 1.58865 -0.710883
Spine1  1.71338 -11.9322 10.7779
Neck  3.97569e-016 0 -2.38542e-015
Head  16.9717 1.82033 3.1628
R_Clavicle  0.352192 -20.239 -1.65162
R_UpperArm  6.52271 -5.91952 34.3524
R_Forearm  45.3625 -19.1782 16.9893
R_Hand  -1.66706 5.46149 -24.696
L_Clavicle  -0.263638 9.33852 0.046813
L_UpperArm  5.68753 -10.6159 -34.2612
L_Forearm  -0.451773 -3.99619 -4.64432
L_Hand  -0.405416 1.37529 -6.56594
L_Thigh  5.72053 -14.8044 6.04724
L_Calf  8.49759 -0.334825 2.7952
L_Foot  5.68423 7.61578 13.7267
L_Toe0  0.50515 0.0344461 -6.1361
R_Thigh  10.4875 -8.78655 -15.3601
R_Calf  -1.97268 -6.39326 -20.3199
R_Foot  1.65702 1.56103 -12.3657
R_Toe0  -0.316168 -0.101059 -17.5398
539
root  0.642753 30.1478 3.9973 -75.8003 -3.59455 78.3791
Spine  1.50335 -0.391183 -2.4907
Spine1  0.329923 -8.81349 10.6785
Neck  3.97569e-016 0 -2.38542e-015
Head  17.3409 1.97499 5.95197
R_Clavicle  0.363678 -20.3449 -1.21449
R_UpperArm  7.79854 -10.142 38.6707
R_Forearm  42.332 -13.7821 11.7317
R_Hand  -1.49526 5.27867 -23.1093
L_Clavicle  -0.340818 9.22075 1.37913
L_UpperArm  9.93053 -15.6494 -37.6429
L_Forearm  0.204777 0.280903 0.30991
L_Hand  -0.431607 1.54469 -6.808
L_Thigh  5.77889 -13.1133 0.713301
L_Calf  7.23043 -0.760175 5.90791
L_Foot  5.88747 7.65474 14.3865
L_Toe0  0.479805 0.0350583 -6.15856
R_Thigh  8.87969 -9.92528 -11.7969
R_Calf  -1.2417 -7.11816 -22.7763
R_Foot  1.32448 1.89809 -8.09594
R_Toe0  -1.96307 -0.271334 -17.4242
540
root  0.50416 30.8479 2.81329 -78.4863 -4.35847 79.0471
Spine  -0.718507 -3.092 -4.40981
Spine1  -1.26129 -4.772 8.58787
Neck  3.97569e-016 0 -2.38542e-015
Head  20.1078 1.56291 10.5003
R_Clavicle  0.353352 -20.0957 -1.34387
R_UpperArm  6.33466 -13.0566 42.8076
R_Forearm  39.038 -8.33406 6.96349
R_Hand  -1.40204 5.98433 -22.1719
L_Clavicle  -0.389167 8.74096 2.24586
L_UpperArm  10.8311 -18.7441 -35.3592
L_Forearm  0.525126 4.91355 5.686
L_Hand  -0.349245 1.87357 -5.24422
L_Thigh  5.43237 -10.925 -4.17676
L_Calf  7.29671 -1.42338 10.7676
L_Foot  5.31654 6.55546 13.7904
L_Toe0  0.669463 0.0333699 -5.99046
R_Thigh  6.8529 -10.3852 -7.58168
R_Calf  -2.09639 -6.43949 -20.5022
R_Foot  1.36217 2.67149 -6.65177
R_Toe0  -1.84125 -0.272482 -17.3536
